/* XPM */
static char *e3e14c9008164334b40c679b4a29e6b9s87b1Ct2poLcb4u9[] = {
/* columns rows colors chars-per-pixel */
"32 32 22 1 ",
"  c black",
". c #0F001E",
"X c #25004B",
"o c #2D005A",
"O c #350069",
"+ c #3D0078",
"@ c #450087",
"# c #4D0096",
"$ c #5500A5",
"% c #5D00B4",
"& c #6500C3",
"* c #6D00D2",
"= c #7500E1",
"- c #7D00F0",
"; c #8500FF",
": c #8C0FFF",
"> c #931EFF",
", c #9A2DFF",
"< c #A13CFF",
"1 c #AF5AFF",
"2 c #BD78FF",
"3 c #D3A5FF",
/* pixels */
";;;;;;;;;;;;;;;;.*-==**$;;;;;;;;",
";%+&O;;;;;;;;;;;=*=;;;;;&;;;;;;;",
";X;;$;;;;;;;;;;;;;=====*;;;;;;;;",
"-=;$;;;;;;;;;;;;;;;;;;;;;;;;;:::",
";;@*;;;;;;;;;;;;;;;;;;;;;;:::;;;",
";;;;;;;;;;;;;;;;;;;;;;;;>>;;;;;;",
";;;;;;;;;;;;;;;;;;;;;;;:>;;;;;;;",
";;;;;;;;;;*==-==&%;;;;;<;;;;;;;;",
";;;;;;;;;--;;;;;-=;;;;1>;;;;;;;;",
";;;;;;;==;;;;;;-;;;;;;2;;;;;;;;;",
";;$=*;;&;;--=-=;;;;;;;3<:::>:>:>",
";;$;=@;---;;;;;;;;;;;;;;;%***=-;",
";;$;;&;;;;;;;;;;;;;;;;%;;;;;;;#;",
";;o;;&;;;;;;;;;;;;;;;;#&;;;;;;$;",
";;-&==;;;>,>>>>:;;;;;;;%$====&&;",
";;;;;;;;=*;;;;;:>;;;;;;;;;;;;;;;",
";;;;;;;;;;;;;;;;;,:;;;;=**---*=;",
";;;;;;;;;;;;;;;;;;>>;;==;;;;;;%;",
";;;;;;;;&-***;;;;;;<2,&1;;;;;;-%",
";;;;;;;;;;;;;==*;;;;;;-------==-",
";;;;;;;;;*;;;;;;*%*;;;;;;;;;;;;;",
";;;;;;;;;-%;;;;;;-#;;;;;;;;;;;;;",
";;;;;;;;;;=&;;;;;&;;;;;;;;;;;;;;",
";;;;;;;;;;;;*==*&;;;;;;;;;;;;;;;",
";;;;;;;;;;;;;;;;;;;;;-&#=;;;;;;;",
";;;;=&*=;;;;;;;;;;;%&=;;*;;;;;;;",
";;;=;;;=*=@;;;;;;;;;;;;;*;;;;;;;",
";;-;;;;%;;&;;;;;$;;;;;;;; ;;;;;;",
";;-;;;;&;;;;;;;;===-;;;;=*;;;;;;",
";=;;*&+;;;;;;;;;;;;-====;;;;;;;;",
";%;;;;;;;;;;;;;;;;;;;;;;;;;;;;;;",
";;;;;;;;;;;;;;;;;;;;;;;;;;;;;;;;"
};
