/* XPM */
static char *_91cc9d984d04cd7ade5dcb57198b158SnIsuo5esrdJv9HZ[] = {
/* columns rows colors chars-per-pixel */
"64 64 153 2 ",
"   c #010001",
".  c #090203",
"X  c #000B05",
"o  c #040309",
"O  c #080508",
"+  c #060B0A",
"@  c #09090A",
"#  c #0B0411",
"$  c #080A10",
"%  c #0E0E1B",
"&  c #120D1D",
"*  c #0D1217",
"=  c #101010",
"-  c #11111A",
";  c #2D0000",
":  c #130C21",
">  c #171324",
",  c #191425",
"<  c #1C1429",
"1  c #2D005A",
"2  c #350069",
"3  c #3D0078",
"4  c #1D4A56",
"5  c #164F58",
"6  c #534C4C",
"7  c gray33",
"8  c #A51F2E",
"9  c #8C283B",
"0  c #9F2634",
"q  c #9C2934",
"w  c #922538",
"e  c #B0202F",
"r  c #A32635",
"t  c #A92635",
"y  c #A22934",
"u  c #A32639",
"i  c #A02A39",
"p  c #C0063B",
"a  c #FD023C",
"s  c #BF0F41",
"d  c #963846",
"f  c #973E48",
"g  c #AF3E5E",
"h  c #FD0344",
"j  c #F30B45",
"k  c #FF0149",
"l  c #DE3E43",
"z  c #E43C44",
"x  c #E93748",
"c  c #E63848",
"v  c #B14662",
"b  c #D04A54",
"n  c #E3424B",
"m  c #E24E4C",
"M  c #E74B51",
"N  c #450087",
"B  c #4D0096",
"V  c #5500A5",
"C  c #5C0AA8",
"Z  c #5D00B4",
"A  c #6500C3",
"S  c #6D00D2",
"D  c #7500E1",
"F  c #7D00F0",
"G  c #8500FF",
"H  c #8C0FFF",
"J  c #931EFF",
"K  c #9A2DFF",
"L  c #A13CFF",
"P  c #A84BFF",
"I  c #AF5AFF",
"U  c #B669FF",
"Y  c #BD78FF",
"T  c #5AB5B8",
"R  c #0097D6",
"E  c #0896D4",
"W  c #0499D6",
"Q  c #0296DB",
"!  c #0997DF",
"~  c #039ADB",
"^  c #0A99DA",
"/  c #1097D7",
"(  c #1896D5",
")  c #248EC8",
"_  c #239CC8",
"`  c #0B97E1",
"'  c #049AE0",
"]  c #38D9D8",
"[  c #2CDEEA",
"{  c #30DFEB",
"}  c #3DDFEF",
"|  c #35DBF4",
" . c #36DEFC",
".. c #0FE6ED",
"X. c #0DE6F5",
"o. c #13E2F1",
"O. c #3CE4EA",
"+. c #2BE6F4",
"@. c #25E9F4",
"#. c #2EEAF6",
"$. c #2EE7FA",
"%. c #25EAFA",
"&. c #34E5F4",
"*. c #38E7F3",
"=. c #35E4FB",
"-. c #38E8FF",
";. c #67D4DC",
":. c #79D0DE",
">. c #46D5E0",
",. c #73D7E0",
"<. c #7ADBE2",
"1. c #45E6EF",
"2. c #41E1FF",
"3. c #8C99AF",
"4. c #869AB7",
"5. c #8C9BB5",
"6. c #909CB9",
"7. c #A8ABAA",
"8. c #AFB3AB",
"9. c #B2B2B2",
"0. c #AEB7CA",
"q. c #B0B6CE",
"w. c #DABAC8",
"e. c #C487FF",
"r. c #CC96FF",
"t. c #D3A5FF",
"y. c #BBC8D7",
"u. c #BDC7D8",
"i. c #BFCADC",
"p. c #A7DDEC",
"a. c #C1CBDD",
"s. c #CED4DF",
"d. c #DFDFDF",
"f. c #C2CDE2",
"g. c #C9D5E5",
"h. c #D0D6E4",
"j. c #D5DAE6",
"k. c #DBDCE7",
"l. c #D3DBE9",
"z. c #E1DEE2",
"x. c #E9D2FF",
"c. c #DFE1EE",
"v. c #DAFFFC",
"b. c gray88",
"n. c #E0E3ED",
"m. c #E4FEFD",
"M. c #F6F6F6",
"N. c #FFF7F7",
"B. c #F3F9F5",
"V. c #F5F6FA",
"C. c #FEF6FC",
"Z. c #FDFDFC",
"A. c #FFFFFF",
/* pixels */
"G G G G G G G G G G G G G G G G G G G G G G G G G G G G G G G G G G G G G G G G G G G G G G G G G G G G G G G G G G G G G G G G ",
"G G G G G G G G G G G A V S D G F S S S S S D D D S N B F G G G G G G G G G G G G G G G G G G G G G G G G G G G G G G G G G G G ",
"G G G G G G G G G G G A V S D F D F F S S S D D D S N N D G G G G G G G G G G G G G G G G G G G G G G G F S S D D D S S S S F G ",
"G G G G G G G G G G G G G G G F D G J J K J G G G G G F D D F G G G G G G G G G G G G G G G G G H K J G H G F G F D S S S S A S ",
"G G G G G G G G G G G G G G G G D B A J K K K K J H G G F A S G G G G G G G G G G G G G G G G L P H G G J J H J J J H G G G Z Z ",
"G G G D S D S S A A F G G G G G F Z Z F G H K K J K K J K G S F G G G G G G G G G G G G G G G P Y H D G G F D F H J J J H G S S ",
"G G D A S D S S A A F G F F G G G G A 2 N S F A Z F G F G H S D H G G G H K K J J J K K H G G D H K G G G G D S F G H J J G D F ",
"G G A A G G G G G G G G D D G G G G S 3 N S D V N V V N N A S F H G G G H K K J J J K K H G G S S G G G G G F D D D D D G G F G ",
"G G S S G G G G G G G D S F G G G G G G G G F D S S S V B A F G G G G G G G G G G G G G G G G G G G G G G G G G F D D D F G G G ",
"G G D D G G G G G F D S D G G G G G G G G G G G G G G F S S D D D D S V A G G G G G   . . . . . . . . . G G G G G G G G G G G G ",
"G G D D G G G G D S D F G G G G G G G G G G G G G G G G F D D D D D S V A G G G G G                     G G G G G G G G G G G G ",
"G G D D G G G F S D G G G G G G G G G G G G G G G G                     G G       @ A.A.f f V.A.f d s.s..   G G G G G G G G G G ",
"G G D D G G D S F G G G D A S D D F G G G G G G G G                     G G         A.A.0 0 n.c.y q q.0.    G G G G G G G G G G ",
"G G F S S D S D G G D S S A S D D F G G G G G G G G                     G G ; ; O o A.A.r 0 z.z.y 0 w.w.o   G G G G G G G G G G ",
"G G G D S D F G G G Z V F G G G G G G G G G             , , , , , ,         z z O , , > r 0 A.A.y y y u k.l.    y y G G G G G G ",
"G G G G G G G G G G S S G G G G G G G G G G           o : : : : & : O o     b b o - - % e 8 C.N.9 d u y l.k.. . w 9 G G G G G G ",
"G G G G G G G G G G G G G G G G G G G G         , > a.a.a.a.i.i.a.a.a.a.        G G G G z c j a A.C.i y     d.d.l.j.    G G G G ",
"G G G G G G G G G G G G G G G G G G G G         : , g.i.a.i.i.i.i.i.i.i.        G G G G c z h h A.A.0 0 O   d.b.j.j.    G G G G ",
"G G G G G G G G G G G G G G G G G G G G         f.i.a.i.A.A.A.A.A.A.A.A.A.A.    G G G G     0 0     z z     A.A.A.A.    G G G G ",
"G G G G G G G G G G G G G G G G G G G G       . a.i.i.i.A.A.A.A.A.A.A.A.A.A.    G G G G     r q   * z l     A.A.V.B.O . G G G G ",
"G G G G F F G G G G G G G G G G G G         , < a.y..       A.A.        A.A.    G G G G G G     G G             m m l.h.    G G ",
"G G G G F F G G G G G G G G G G G G         , < a.u..       A.A.      O A.A.    G G G G G G     G G . .     . . M M j.h.    G G ",
"G G G G G G G G G G G G G G G G G G         , < a.u..   5.5.A.A.  . 6.3.A.A.    G G G G G G     G G G G y y G G y r j.l.    G G ",
"G G G G G G G G G G G G G G G G G G         , < a.y.O   5.5.A.A.  . 4.5.A.A.    G G G G G G     G G G G t 0 G G t y l.h.    G G ",
"G G G G G G G G G G G G G G G G G G         , < a.i.g.f.A.N.A.A.A.A.A.A.A.A.    G G G G G G     G G G G G G G G G G         G G ",
"G G G G G G G F F G G G G G G G G G         , < a.a.i.i.A.A.A.A.A.A.A.A.A.A.    G G G G G G     G G G G G G G G G G         G G ",
"G G G G G G G D D G G G G G G G             , % O   a.i.A.A.A.A.A.A.A.A., ,     G G G G G G     G G G G G G G G G G G G x z G G ",
"G G G G G G F D F G G G G G G G             , >     a.i.A.A.A.A.A.A.A.A.< <     G G G G G G     G G G G G G G G G G G G n x G G ",
"G G G G G G S S G G G G G G G G                     a.a.    A.A.    A.A.    G G G G G G G G     G G G G G G G G G G G G     G G ",
"G G G G G G S S G G G G G G G G                     i.a.    A.A.    A.A.    G G G G G G G G     G G G G G G G G G G G G     G G ",
"G G G F S S A A F G G G G G G G                                             G G G G G G G G     G G G G G G G G G G G G G G G G ",
"G G F D S S Z Z S D G G G G G G                                             G G G G G G G G     G G G G G G G G G G G G G G G G ",
"G G S S G G S V Z V A G G G G G         C C C C C C .                   C C G G G G ,.:.G G     G G G G G G G G G G G G v g G G ",
"G G S S G G S N Z A A G G G G G         G G G G G G                     G G G G G G =.%.G G     G F S D G G G G G G G G k k G G ",
"G G S S G G S B A G G G G G G G     .   G G G G G G @                   G G G G G G >.] G G     G F A A F G G G G G G G p s G G ",
"G G S S G G N 2 G P L H G G G       G G G G G G                 G G G G G G G G G G G G @.+.    G G F I I F G G G G G G G G G G ",
"G G K P K J V V K P x.t.G G G . . . G G G G G G .               G G G G G G G G G G G G 1.O..   G G G e.Y D F G G G G G G G G G ",
"G F K I K J F F H G r.r.G G G G G G G G G G @ @                         G G G G G G *.*.G G     G G G H J F F J H G G G G G G G ",
"G D D G G G S S D D G G G G G G G G G G G G . @                         G G G G G G -.%.G G     G G G G J H D H D 2 B F G G G G ",
"G S S G G G D A A D G G G G *.&.G G G G G G                                     G G     G G A.A.a.i.G G H J D D D 3 N D G G G G ",
"G S S G G G A V D G G G G G @.*.G G G G G G                                     G G X . G G A.A.a.i.G G G H F F J J J G F G G G ",
"G D D D S D B V G G G G G G ^ `     G G                                           @ Q R f.a.A.A.a.i.G G G G F D H K K L H F G G ",
"D A S S S D A S G G G G G G ~ /     G G                                             Q R f.a.A.A.a.i.G G G G G S F K L I H D G G ",
"2 B D F G G G G G G G G G G . o G G G G                                         G G G G G G a.i.a.i.G G G G G F A D L K F D F G ",
"N A G G G G G G G G G G G G     G G G G                                         G G G G G G a.i.a.i.G G G G G G S V S G G D D G ",
"G G G G G G G G G G     G G G G ~ ^ G G                                         G G ` ~ #.+.    G G G G G G G G G B N F G S S G ",
"G G G G G G G G G G     G G G G ~ ^ G G                                         G G ' ! #.&.    G G G G G G G G G A N B S A A G ",
"G G G G G G G G G G | +..   G G G G                                                   o ( ^     A Z A D =.&.G G G G S V S A A G ",
"G G G G G G G G G G %.=.    G G G G                                                   . ~ W     A Z A D &.+.G G G G G G G D D G ",
"G G G G G G G G G G m.v.) ) G G G G                                             G G     G G     G G G G X + G G G G G G G G G G ",
"G G G G G G G G G G G G ! Q G G G G                                             G G     G G     G G G G     G G G G G G G G G G ",
"G G G G G G G G @ @ G G  . .$ @ @ @ M.M.                                        @ = G G G G     G G ;.;.G G G G G G G G G G G G ",
"G G G G G G G G     G G +.+.        A.A.                                            G G G G     G G $.$.G G G G G G G G G G G G ",
"G G G G G G G G 5 4 7.8.<.<.6 7     7.9.                                            9.9.G G     p.p.T T G G G G G G G G G G G G ",
"G G G G G G G G =.+.O   G G G G                                                         G G   o W R     G G G G G G G G G G G G ",
"G G G D A S S S X.o.    G G G G . .                                                     G G     ( _ O . G G F S A A B Z G G G G ",
"G G G D A S S S ..X.S D &.&.    G G                                                     $.+.    G G G G G D A A A A B N S G G G ",
"G G G G G G G G 2.{ G G [ [ # @ G G                                                 o . } [ o   G G G G F A A F G G G S A F G G ",
"J J H G G G G G             ~ W                                                     Q '             G G F V Z G G G G G F A Z D ",
"J J K L L J G G             ^ E                                                     R ^ o           G G G A Z S S D S S S 3 1 A ",
"G G J L e.U G G G G           O                                                     o       G G         G G F S S D S S S V V D ",
"G G G G e.e.G G G G                                                                                     G G G G G G G G G G G G ",
"G G G H I P G G                                                                                           G G G L U P K K K J J ",
"L P J K K H G G G                                                                                         G G G L U P K K K J J "
};
