/* XPM */
static char *_d843394da0c4949aff83959bb4708b8eP23kVMPI39hGeU1[] = {
/* columns rows colors chars-per-pixel */
"64 64 154 2 ",
"   c #010001",
".  c #090203",
"X  c #000B05",
"o  c #040309",
"O  c #080508",
"+  c #060B0A",
"@  c #09090A",
"#  c #0B0411",
"$  c #080A10",
"%  c #0E0E1B",
"&  c #120D1D",
"*  c #0D1217",
"=  c #101010",
"-  c #11111A",
";  c #2D0000",
":  c #300001",
">  c #130C21",
",  c #171324",
"<  c #191425",
"1  c #1C1429",
"2  c #2D005A",
"3  c #350069",
"4  c #3D0078",
"5  c #1D4A56",
"6  c #164F58",
"7  c #534C4C",
"8  c gray33",
"9  c #A51F2E",
"0  c #8C283B",
"q  c #9F2634",
"w  c #9C2934",
"e  c #922538",
"r  c #B0202F",
"t  c #A32635",
"y  c #A92635",
"u  c #A22934",
"i  c #A32639",
"p  c #A02A39",
"a  c #C0063B",
"s  c #FD023C",
"d  c #BF0F41",
"f  c #963846",
"g  c #973E48",
"h  c #AF3E5E",
"j  c #FD0344",
"k  c #F30B45",
"l  c #FF0149",
"z  c #DE3E43",
"x  c #E43C44",
"c  c #E93748",
"v  c #E63848",
"b  c #B14662",
"n  c #D04A54",
"m  c #E3424B",
"M  c #E24E4C",
"N  c #E74B51",
"B  c #450087",
"V  c #4D0096",
"C  c #5500A5",
"Z  c #5C0AA8",
"A  c #5D00B4",
"S  c #6500C3",
"D  c #6D00D2",
"F  c #7500E1",
"G  c #7D00F0",
"H  c #8500FF",
"J  c #8C0FFF",
"K  c #931EFF",
"L  c #9A2DFF",
"P  c #A13CFF",
"I  c #A84BFF",
"U  c #AF5AFF",
"Y  c #B669FF",
"T  c #BD78FF",
"R  c #5AB5B8",
"E  c #0097D6",
"W  c #0896D4",
"Q  c #0499D6",
"!  c #0296DB",
"~  c #0997DF",
"^  c #039ADB",
"/  c #0A99DA",
"(  c #1097D7",
")  c #1896D5",
"_  c #248EC8",
"`  c #239CC8",
"'  c #0B97E1",
"]  c #049AE0",
"[  c #38D9D8",
"{  c #2CDEEA",
"}  c #30DFEB",
"|  c #3DDFEF",
" . c #35DBF4",
".. c #36DEFC",
"X. c #0FE6ED",
"o. c #0DE6F5",
"O. c #13E2F1",
"+. c #3CE4EA",
"@. c #2BE6F4",
"#. c #25E9F4",
"$. c #2EEAF6",
"%. c #2EE7FA",
"&. c #25EAFA",
"*. c #34E5F4",
"=. c #38E7F3",
"-. c #35E4FB",
";. c #38E8FF",
":. c #67D4DC",
">. c #79D0DE",
",. c #46D5E0",
"<. c #73D7E0",
"1. c #7ADBE2",
"2. c #45E6EF",
"3. c #41E1FF",
"4. c #8C99AF",
"5. c #869AB7",
"6. c #8C9BB5",
"7. c #909CB9",
"8. c #A8ABAA",
"9. c #AFB3AB",
"0. c #B2B2B2",
"q. c #AEB7CA",
"w. c #B0B6CE",
"e. c #DABAC8",
"r. c #C487FF",
"t. c #CC96FF",
"y. c #D3A5FF",
"u. c #BBC8D7",
"i. c #BDC7D8",
"p. c #BFCADC",
"a. c #A7DDEC",
"s. c #C1CBDD",
"d. c #CED4DF",
"f. c #DFDFDF",
"g. c #C2CDE2",
"h. c #C9D5E5",
"j. c #D0D6E4",
"k. c #D5DAE6",
"l. c #DBDCE7",
"z. c #D3DBE9",
"x. c #E1DEE2",
"c. c #E9D2FF",
"v. c #DFE1EE",
"b. c #DAFFFC",
"n. c gray88",
"m. c #E0E3ED",
"M. c #E4FEFD",
"N. c #F6F6F6",
"B. c #FFF7F7",
"V. c #F3F9F5",
"C. c #F5F6FA",
"Z. c #FEF6FC",
"A. c #FDFDFC",
"S. c #FFFFFF",
/* pixels */
"H H H H H H H H H H H H H H H H H H H H H H H H H H H H H H H H H H H H H H H H H H H H H H H H H H H H H H H H H H H H H H H H ",
"H H H H H H H H H H H H H H H H H H H H H H H H H H H H H H H H H H H G V B D F F F D D D D D G H F D C S H H H H H H H H H H H ",
"H G D D D D F F F D D G H H H H H H H H H H H H H H H H H H H H H H H F B B D F F F D D D G G F G F D C S H H H H H H H H H H H ",
"D S D D D D F G H G H J H K L J H H H H H H H H H H H H H H H H H G F F G H H H H H K L K K H F G H H H H H H H H H H H H H H H ",
"A A H H H J K K K J K K H H J I P H H H H H H H H H H H H H H H H D S G H H J K L L L L K S V F H H H H H H H H H H H H H H H H ",
"D D H J K K K J G F G H H F J T I H H H H H H H H H H H H H H H G D H L K L L K L L J H G A A G H H H H H G S S D D F D F H H H ",
"G F H K K J H G D F H H H H L J F H H J L L K K K L L J H H H J F D J H G H G A S G D B 3 S H H H H G G H G S S D D F D S F H H ",
"H G H H F F F F F G H H H H H D D H H J L L K K K L L J H H H J G D S B B C C B C F D B 4 D H H H H F F H H H H H H H H S S H H ",
"H H H G F F F G H H H H H H H H H H H H H H H H H H H H H H H H H G S V C D D D F G H H H H H H H H G D F H H H H H H H D D H H ",
"H H H H H H H H H H H H O O O O O O O O O o H H H H H S C D F F F F D D G H H H H H H H H H H H H H H F D F G H H H H H F F H H ",
"H H H H H H H H H H H H o                   H H H H H S C D F F F F F G H H H H H H H H H H H H H H H H G F D F H H H H F F H H ",
"H H H H H H H H H H   O d.d.f g A.C.g g A.A.@       H H                     H H H H H H H H H H H H H H H H F D G H H H F F H H ",
"H H H H H H H H H H     q.w.w t v.m.q q A.A.        H H                     H H H H H H H H G F F D S F H H H G D F H H F F H H ",
"H H H H H H H H H H o o e.e.q t x.x.q t A.A.o . : ; H H     o o o o o o     H H H H H H H H G F F D S D D F H H F D F D D G H H ",
"H H H H H H t t     z.l.i t t t A.A.q t , < < . x x         1 < < < < <             H H H H H H H H H G C A H H H G F D F H H H ",
"H H H H H H 0 e O O l.k.t i f 0 B.Z.9 r % - - o n n     o . > & > > > > o     o     H H H H H H H H H H D D H H H H H H H H H H ",
"H H H H     k.z.f.f.  o t p Z.A.s k v x H H H H . .     s.s.s.s.p.p.s.s.s.s., <         H H H H H H H H H H H H H H H H H H H H ",
"H H H H     k.k.n.f.  . q q A.A.j j x v H H H H         p.p.p.p.p.p.p.s.p.h.< >         H H H H H H H H H H H H H H H H H H H H ",
"H H H H     A.A.A.A.    x x     q q     H H H H     A.A.A.A.A.A.A.A.A.A.p.s.p.s.        H H H H H H H H H H H H H H H H H H H H ",
"H H H H . o V.C.A.A.    z x *   w t     H H H H     A.A.A.A.A.A.A.A.A.A.p.p.p.s.O       H H H H H H H H H H H H H H H H H H H H ",
"H H     j.k.M M       .   . H H     H H H H H H     A.A.        A.A.      O u.s.1 <         H H H H H H H H H H H H G G H H H H ",
"H H     j.k.N N O O     O O H H     H H H H H H     A.A.o       A.A.o o   O i.s.1 <         H H H H H H H H H H H H G G H H H H ",
"H H     z.k.t t H H t u H H H H     H H H H H H     A.A.4.7.O   A.A.6.6.  O i.s.1 <         H H H H H H H H H H H H H H H H H H ",
"H H     j.z.u y H H q y H H H H     H H H H H H     A.A.6.5..   A.A.6.6.  O u.s.1 <         H H H H H H H H H H H H H H H H H H ",
"H H   .     H H H H H H H H H H     H H H H H H     A.A.A.A.C.C.A.A.B.A.g.h.p.s.1 <         H H H H H H H H H H H H H H H H H H ",
"H H         H H H H H H H H H H     H H H H H H     A.A.A.A.A.A.A.A.A.A.p.p.s.s.1 <         H H H H H H H H H G G H H H H H H H ",
"H H x c H H H H H H H H H H H H     H H H H H H     < < A.A.A.A.A.A.A.A.p.s.o . % <             H H H H H H H F F H H H H H H H ",
"H H c m H H H H H H H H H H H H     H H H H H H     1 1 A.A.A.A.A.A.A.A.p.s.    , <             H H H H H H H G F G H H H H H H ",
"H H . . H H H H H H H H H H H H     H H H H H H H H     A.A.    A.A.    s.s.                    H H H H H H H H D D H H H H H H ",
"H H     H H H H H H H H H H H H     H H H H H H H H     A.A.    A.A.    s.p.                    H H H H H H H H D D H H H H H H ",
"H H H H H H H H H H H H H H H H     H H H H H H H H                     o o                     H H H H H H H G S S D D G H H H ",
"H H H H H H H H H H H H H H H H     H H H H H H H H                                             H H H H H H F D A A D D F G H H ",
"H H h b H H H H H H H H H H H H     H H >.<.H H H H Z Z                   O Z Z Z Z Z Z         H H H H H S C A C D H H D D H H ",
"H H l l H H H H H H H H F D G H     H H &.*.H H H H H H                     H H H H H H         H H H H H S S A B D H H D D H H ",
"H H d a H H H H H H H G S S G H     H H [ ,.H H H H H H                   @ H H H H H H   O     H H H H H H H S V D H H D D H H ",
"H H H H H H H H H H G U U G H H     @.#.H H H H H H H H H H H H                 H H H H H H       H H H J P I H 3 B H H D D H H ",
"H H H H H H H H H G F T r.H H H   . +.2.H H H H H H H H H H H H               O H H H H H H O O O H H H y.c.I L C C K L I L H H ",
"H H H H H H H J K G G K J H H H   o H H *.=.H H H H H H                         @ @ H H H H H H H H H H t.t.H J G G K L U L G H ",
"H H H H G V 3 F J F J K H H H H     H H &.;.H H H H H H                         @ O H H H H H H H H H H H H F F D D H H H F F H ",
"H H H H F B 4 F F F K J H H p.s.A.A.H H     H H                                     H H H H H H *.*.H H H H F S S F H H H D D H ",
"H H H G H K K K G G J H H H p.s.A.A.H H . X H H                                     H H H H H H *.#.H H H H H F C S H H H D D H ",
"H H G J P L L J F G H H H H p.s.A.A.s.g.E E @                                           H H   o ' / H H H H H H C V F D F F F H ",
"H H F J U P L G D H H H H H p.s.A.A.s.g.E E .                                           H H   o ( ^ H H H H H H D S F D D D S F ",
"H G F G L P F S G H H H H H p.s.p.s.H H H H H H                                         H H H H o . H H H H H H H H H H G F V 3 ",
"H F F H H D C D H H H H H H p.s.p.s.H H H H H H                                         H H H H     H H H H H H H H H H H H S B ",
"H D D H G B V H H H H H H H H H     @.$.^ ' H H                                         H H / ^ H H H H     H H H H H H H H H H ",
"H S S D V B S H H H H H H H H H     *.$.~ ] H H                                         H H / ^ H H H H     H H H H H H H H H H ",
"H S S D C D H H H H *.-.F S A S   o / ) o .                                               . H H H H   O @. .H H H H H H H H H H ",
"H F F H H H H H H H @.*.F S A S   o Q ^ .                                                   H H H H   . -.&.H H H H H H H H H H ",
"H H H H H H H H H H + X H H H H     H H     H H                                             H H H H _ _ b.M.H H H H H H H H H H ",
"H H H H H H H H H H   . H H H H     H H     H H                                             H H H H ! ~ H H H H H H H H H H H H ",
"H H H H H H H H H H H H :.:.H H     H H H H = @                                         N.N.@ @ @ $ ....H H @ @ H H H H H H H H ",
"H H H H H H H H H H H H %.%.H H     H H H H                                             A.A.        @.@.H H   o H H H H H H H H ",
"H H H H H H H H H H H H R R a.a.    H H 0.0.                                            0.8.    8 7 1.1.9.8.5 6 H H H H H H H H ",
"H H H H H H H H H H H H     E Q o   H H .                                                       H H H H   . @.-.H H H H H H H H ",
"H H H H A V S S D G H H O O ` )     H H                                                     O O H H H H     O.o.D D D S F H H H ",
"H H H D B V S S S S F H H H H H     @.%.                                                    H H     *.*.F D o.X.D D D S F H H H ",
"H H G S D H H H G S S G H H H H   o { | . o                                                 H H @ # { { H H } 3.H H H H H H H H ",
"F A S G H H H H H A C G H H           o ] E                                                     ^ ^           o H H H H H J K K ",
"S 2 4 D D D F D D A S H H H           o / E                                                   o W /             H H K P P L K K ",
"F C C D D D F D D G H H         H H     o o                                                     .           H H H H Y r.P K H H ",
"H H H H H H H H H H H H                                                                                     H H H H r.r.H H H H ",
"K K L L L I Y P H H H                                                                                           H H I U J H H H ",
"K K L L L I Y P H H H                                                                                         H H H J L L K I P "
};
