/* XPM */
static char *c79a68e1e75c4fffa7a6b0e69430ce57bnhAAHnuXbiTkhYm[] = {
/* columns rows colors chars-per-pixel */
"32 32 97 2 ",
"   c None",
".  c black",
"X  c #000E0F",
"o  c #1E0000",
"O  c #2D0000",
"+  c #3C0000",
"@  c #00383C",
"#  c #5B0000",
"$  c #690000",
"%  c #780000",
"&  c #790000",
"*  c #693300",
"=  c #783B00",
"-  c #006369",
";  c #870000",
":  c #960000",
">  c #970000",
",  c #A50000",
"<  c #B40000",
"1  c #C30000",
"2  c #D20000",
"3  c #D40000",
"4  c #E10000",
"5  c #F00000",
"6  c #F10000",
"7  c red",
"8  c #FF0101",
"9  c #FF1010",
"0  c #FF1111",
"q  c #FF1F1F",
"w  c #FF2E2E",
"e  c #FF3D3D",
"r  c #FF3E3E",
"t  c #FF3F3F",
"y  c #874200",
"u  c #874300",
"i  c #964900",
"p  c #A55100",
"a  c #B45900",
"s  c #C36000",
"d  c #C36100",
"f  c #D26900",
"g  c #E17100",
"h  c #F07900",
"j  c #FF4D4D",
"k  c #FF5B5B",
"l  c #FF5C5C",
"z  c #FF6969",
"x  c #FF6A6A",
"c  c #FF6B6B",
"v  c #FF7979",
"b  c #FF7A7A",
"n  c #FF8000",
"m  c #FF8100",
"M  c #FF8300",
"N  c #FF870F",
"B  c #FF880F",
"V  c #FF890F",
"C  c #FF8A0F",
"Z  c #FF8B0F",
"A  c #FF8810",
"S  c #FF8F1E",
"D  c #FF911E",
"F  c #FF901F",
"G  c #FF972D",
"H  c #FF982D",
"J  c #FF982E",
"K  c #FF9F3C",
"L  c #FF9F3D",
"P  c #FFA03D",
"I  c #FFA74B",
"U  c #FFAE5A",
"Y  c #FFB05A",
"T  c #FFB569",
"R  c #FFBE78",
"E  c #C300B8",
"W  c #8500FF",
"Q  c #D200C6",
"!  c #E100D4",
"~  c #FF00F2",
"^  c #008187",
"/  c #009FA5",
"(  c #00AEB4",
")  c #00BDC3",
"_  c #00CCD2",
"`  c #00DBE1",
"'  c #00EAF0",
"]  c #00F9FF",
"[  c #0FF9FF",
"{  c #1EF9FF",
"}  c #2DF9FF",
"|  c #3CF9FF",
" . c #4BF9FF",
".. c #69FAFF",
"X. c #FFC487",
"o. c #FFCC97",
"O. c #FFD3A5",
/* pixels */
"W W W W W W W W W W W W W W W W W W W W W W W W W W W W W W W W ",
"W W 7 W W W W W W W W W W W W W W W W W W W ! W W W W W W W W W ",
"W W 2 W W W ~ W W W W W W W W W ( W W W W ~ W 1 W W W W W W E W ",
"W 7 2 W W W W Q W W 7 W W W W W ` [ W W W W W W W W W W W W W W ",
"7 q # q W ] W W W W W W W 7 W W ' ` ] W W W W W 7 7 W W 4 W W ~ ",
"7 x > q 7 @ ] W W W W W 2 W W W [ _ ] W W W W W W W W 7 . 7 W W ",
"7 O 9 w - ^ ( { W 7 W W W W W W ` _ + W W W W ) ` W W 7 ; 7 7 W ",
"  7 q 3 k ^ [ ] W 7 W W W W W ' ] ] 7 7 W W W W ` W W W 7 , 5 7 ",
"  7 7 9 b _ ` ] W W 4 7 W W ] ' ] 7 > 2 W W W W { ` W W W 7 ; 4 ",
"`   7 e b w / W W W o , < W ] ' 7 5 2 5 7 W ! W [ ] W W W W 7 ; ",
") ] q x e { ] W W W 7 7 1 x _ 7 7 5 9 5 7 W W ( | ] ] W W W 7 > ",
"- ' j l ..] W W W W W 7 1 7 4 7 7 2 q % 7 W ' [ ' ' W W W 5 4 7 ",
"_ 5 e q ] W W W W W 7 4 5 7 7 7 7 1 e 7 % W _ { _ ' W 7 5 4 7 7 ",
"] $ l q 7 7 W W W W 5 2 7 7 W 7 7 4 e 7 7 W _ | / 7 7 5 1 7 7 7 ",
"  7 b 4 , 7 7 5 7 7 < 7 7 7 W W 7 7 e 7 W W  .{ ; 7 7 , 7 7 7 7 ",
"7 7 7 7 4 1 5 7 . 7 2 7 7 W W W W 7 q 7 W ' ] } 7 7 7 7 7 7 7 W ",
"7 7 7 F I I m C 7 7 7 7 7 7 F F F C 7 7 7 [ ]   C 7 P P C 7 7 W ",
"7 7 H F m m m A L H m m F 7 m C H C o.I C m m U F m m m F 7 7 X ",
"F F m m m m m m i m m m m m m m m m m m m m m m m m m m m m P H ",
"m m m m m m m m f f m m m m p d h g h m m m m m m O.m m m m m m ",
"m m m m H m m m m a m m m m m m m m m g m m m m m H F m m m m m ",
"m m m d N m m m m m g m m m m m g m m m g h m m m m H m m m = a ",
"m m h g R g m m m m d m m m m G h a a m m g m m m X.Y m h d f m ",
"m m h m F C m m m m m p m m m m f m m h m h g T H h d a g m m m ",
"m m h m m G C m m m m g m m F I m m C h h m g h m g m m F m m m ",
"m g m m m m S g m m m f m F C X.m m C m h m m f g h m h C L m g ",
"m h m m m m C y m m m m m m f h C m C m h m m m g g m h m H h h ",
"m f g g g f m C H m m m m m g m C m C m m g m m h m m h h m g m ",
"* y m m m m g m m m m m m p g m m C F m m h h h m m m m g g m m ",
"= h m m m m h f m m m m m g m m m C C m m m h h m m m m = h m m ",
"m m m m m m m h f m m g g h m m m F C m m m g f m m m m m m m m ",
"m m m m m m m m m f g m m m m m m C C m m m m * m m m m m m m m "
};
