/* XPM */
static char *_6bcbd094ef740c2970f126eabcc2d22r2SAzqU3IAv3QpUU[] = {
/* columns rows colors chars-per-pixel */
"32 32 97 2 ",
"   c None",
".  c black",
"X  c #000E0F",
"o  c #1E0000",
"O  c #2D0000",
"+  c #3C0000",
"@  c #00383C",
"#  c #5B0000",
"$  c #690000",
"%  c #780000",
"&  c #790000",
"*  c #693300",
"=  c #783B00",
"-  c #006369",
";  c #870000",
":  c #960000",
">  c #970000",
",  c #A50000",
"<  c #B40000",
"1  c #C30000",
"2  c #D20000",
"3  c #D40000",
"4  c #E10000",
"5  c #F00000",
"6  c #F10000",
"7  c red",
"8  c #FF0101",
"9  c #FF1010",
"0  c #FF1111",
"q  c #FF1F1F",
"w  c #FF2E2E",
"e  c #FF3D3D",
"r  c #FF3E3E",
"t  c #FF3F3F",
"y  c #874200",
"u  c #874300",
"i  c #964900",
"p  c #A55100",
"a  c #B45900",
"s  c #C36000",
"d  c #C36100",
"f  c #D26900",
"g  c #E17100",
"h  c #F07900",
"j  c #FF4D4D",
"k  c #FF5B5B",
"l  c #FF5C5C",
"z  c #FF6969",
"x  c #FF6A6A",
"c  c #FF6B6B",
"v  c #FF7979",
"b  c #FF7A7A",
"n  c #FF8000",
"m  c #FF8100",
"M  c #FF8300",
"N  c #FF870F",
"B  c #FF880F",
"V  c #FF890F",
"C  c #FF8A0F",
"Z  c #FF8B0F",
"A  c #FF8810",
"S  c #FF8F1E",
"D  c #FF911E",
"F  c #FF901F",
"G  c #FF972D",
"H  c #FF982D",
"J  c #FF982E",
"K  c #FF9F3C",
"L  c #FF9F3D",
"P  c #FFA03D",
"I  c #FFA74B",
"U  c #FFAE5A",
"Y  c #FFB05A",
"T  c #FFB569",
"R  c #FFBE78",
"E  c #C300B8",
"W  c #8500FF",
"Q  c #D200C6",
"!  c #E100D4",
"~  c #FF00F2",
"^  c #008187",
"/  c #009FA5",
"(  c #00AEB4",
")  c #00BDC3",
"_  c #00CCD2",
"`  c #00DBE1",
"'  c #00EAF0",
"]  c #00F9FF",
"[  c #0FF9FF",
"{  c #1EF9FF",
"}  c #2DF9FF",
"|  c #3CF9FF",
" . c #4BF9FF",
".. c #69FAFF",
"X. c #FFC487",
"o. c #FFCC97",
"O. c #FFD3A5",
/* pixels */
"W W W W W W W W W W W W W W W W W W W W W W W W W W W W W W W W ",
"W W W W W W W W W ! W W W W W W W W W W W W W W W W W W W 7 W W ",
"W E W W W W W W 1 W ~ W W W W ( W W W W W W W W W ~ W W W 2 W W ",
"W W W W W W W W W W W W W W [ ` W W W W W 7 W W Q W W W W 2 7 W ",
"~ W W 4 W W 7 7 W W W W W ] ` ' W W 7 W W W W W W W ] W q # q 7 ",
"W W 7 . 7 W W W W W W W W ] _ [ W W W 2 W W W W W ] @ 7 q : c 7 ",
"W 7 7 ; 7 W W ` ) W W W W + _ ` W W W W W W 7 W { ( ^ - w 9 O 7 ",
"7 5 , 7 W W W ` W W W W 7 7 ] ] ' W W W W W 7 W ] [ ^ k 3 q 7   ",
"4 ; 7 W W W ` { W W W W 2 : 7 ] ' ] W W 7 4 W W ] ` _ b 9 7 7   ",
"; 7 W W W W ] [ W ! W 7 5 2 5 7 ' ] W < , o W W W / w b r 7   ` ",
": 7 W W W ] ] | ( W W 7 5 9 5 7 7 _ c 1 7 7 W W W ] { r c q ] ) ",
"7 4 5 W W W ' ' [ ' W 7 & q 2 7 7 4 7 1 7 W W W W W ] ..l j ' - ",
"7 7 4 5 7 W ' _ { _ W & 7 r 1 7 7 7 7 5 4 7 W W W W W ] q r 5 _ ",
"7 7 7 1 5 7 7 / | _ W 7 7 r 4 7 7 W 7 7 2 5 W W W W 7 7 q l $ ] ",
"7 7 7 7 , 7 7 ; {  .W W 7 r 7 7 W W 7 7 7 < 7 7 5 7 7 , 4 b 7   ",
"W 7 7 7 7 7 7 7 } ] ' W 7 q 7 W W W W 7 7 2 7 . 7 5 1 4 7 7 7 7 ",
"W 7 7 V P P 7 V   ] [ 7 7 7 V F F F 7 7 7 7 7 7 V m I I F 7 7 7 ",
"X 7 7 F m m m F U m m V I o.V H V m 7 F m m H K A m m m F H 7 7 ",
"H P m m m m m m m m m m m m m m m m m m m m m i m m m m m m F F ",
"m m m m m m O.m m m m m m h g h s p m m m m f f m m m m m m m m ",
"m m m m m F H m m m m m g m m m m m m m m m a m m m m H m m m m ",
"a = m m m H m m m m h g m m m g m m m m m g m m m m m N s m m m ",
"m f s h m Y X.m m m g m m a a h G m m m m s m m m m g R g h m m ",
"m m m g a s h H T g h m h m m f m m m m p m m m m m V F m h m m ",
"m m m F m m g m h g m h h V m m I F m m g m m m m V G m m h m m ",
"g m K V h m h g f m m h m V m m X.V F m f m m m g S m m m m g m ",
"h h H m h m g g m m m h m V m V h f m m m m m m u V m m m m h m ",
"m g m h h m m h m m g m m V m V m g m m m m m H V m f g g g f m ",
"m m g g m m m m h h h m m F V m m g p m m m m m m g m m m m u * ",
"m m h = m m m m h h m m m V V m m m g m m m m m f h m m m m h = ",
"m m m m m m m m f g m m m V F m m m h g g m m f h m m m m m m m ",
"m m m m m m m m * m m m m V V m m m m m m g f m m m m m m m m m "
};
