/* XPM */
static char *_89c8ae1d287467acb312dc3d4e62771EpmaMYtLCKGVg9Rh[] = {
/* columns rows colors chars-per-pixel */
"64 64 97 2 ",
"   c None",
".  c black",
"X  c #000E0F",
"o  c #1E0000",
"O  c #2D0000",
"+  c #3C0000",
"@  c #00383C",
"#  c #5B0000",
"$  c #690000",
"%  c #780000",
"&  c #790000",
"*  c #693300",
"=  c #783B00",
"-  c #006369",
";  c #870000",
":  c #960000",
">  c #970000",
",  c #A50000",
"<  c #B40000",
"1  c #C30000",
"2  c #D20000",
"3  c #D40000",
"4  c #E10000",
"5  c #F00000",
"6  c #F10000",
"7  c red",
"8  c #FF0101",
"9  c #FF1010",
"0  c #FF1111",
"q  c #FF1F1F",
"w  c #FF2E2E",
"e  c #FF3D3D",
"r  c #FF3E3E",
"t  c #FF3F3F",
"y  c #874200",
"u  c #874300",
"i  c #964900",
"p  c #A55100",
"a  c #B45900",
"s  c #C36000",
"d  c #C36100",
"f  c #D26900",
"g  c #E17100",
"h  c #F07900",
"j  c #FF4D4D",
"k  c #FF5B5B",
"l  c #FF5C5C",
"z  c #FF6969",
"x  c #FF6A6A",
"c  c #FF6B6B",
"v  c #FF7979",
"b  c #FF7A7A",
"n  c #FF8000",
"m  c #FF8100",
"M  c #FF8300",
"N  c #FF870F",
"B  c #FF880F",
"V  c #FF890F",
"C  c #FF8A0F",
"Z  c #FF8B0F",
"A  c #FF8810",
"S  c #FF8F1E",
"D  c #FF911E",
"F  c #FF901F",
"G  c #FF972D",
"H  c #FF982D",
"J  c #FF982E",
"K  c #FF9F3C",
"L  c #FF9F3D",
"P  c #FFA03D",
"I  c #FFA74B",
"U  c #FFAE5A",
"Y  c #FFB05A",
"T  c #FFB569",
"R  c #FFBE78",
"E  c #C300B8",
"W  c #8500FF",
"Q  c #D200C6",
"!  c #E100D4",
"~  c #FF00F2",
"^  c #008187",
"/  c #009FA5",
"(  c #00AEB4",
")  c #00BDC3",
"_  c #00CCD2",
"`  c #00DBE1",
"'  c #00EAF0",
"]  c #00F9FF",
"[  c #0FF9FF",
"{  c #1EF9FF",
"}  c #2DF9FF",
"|  c #3CF9FF",
" . c #4BF9FF",
".. c #69FAFF",
"X. c #FFC487",
"o. c #FFCC97",
"O. c #FFD3A5",
/* pixels */
"W W W W W W W W W W W W W W W W W W W W W W W W W W W W W W W W W W W W W W W W W W W W W W W W W W W W W W W W W W W W W W W W ",
"W W W W W W W W W W W W W W W W W W W W W W W W W W W W W W W W W W W W W W W W W W W W W W W W W W W W W W W W W W W W W W W W ",
"W W W W 7 7 W W W W W W W W W W W W W W W W W W W W W W W W W W W W W W W W W W W W W W ! ! W W W W W W W W W W W W W W W W W W ",
"W W W W 7 7 W W W W W W W W W W W W W W W W W W W W W W W W W W W W W W W W W W W W W W ! ! W W W W W W W W W W W W W W W W W W ",
"W W W W 2 2 W W W W W W ~ ~ W W W W W W W W W W W W W W W W W W ( ( W W W W W W W W ~ ~ W W 1 1 W W W W W W W W W W W W E E W W ",
"W W W W 2 2 W W W W W W ~ ~ W W W W W W W W W W W W W W W W W W ( ( W W W W W W W W ~ ~ W W 1 1 W W W W W W W W W W W W E E W W ",
"W W 7 7 2 2 W W W W W W W W Q Q W W W W 7 7 W W W W W W W W W W ` ` [ [ W W W W W W W W W W W W W W W W W W W W W W W W W W W W ",
"W W 7 7 2 2 W W W W W W W W Q Q W W W W 7 7 W W W W W W W W W W ` ` [ [ W W W W W W W W W W W W W W W W W W W W W W W W W W W W ",
"7 7 q q # # q q W W ] ] W W W W W W W W W W W W W W 7 7 W W W W ' ' ` ` ] ] W W W W W W W W W W 7 7 7 7 W W W W 4 4 W W W W ~ ~ ",
"7 7 q q # # q q W W ] ] W W W W W W W W W W W W W W 7 7 W W W W ' ' ` ` ] ] W W W W W W W W W W 7 7 7 7 W W W W 4 4 W W W W ~ ~ ",
"7 7 x x > > q q 7 7 @ @ ] ] W W W W W W W W W W 2 2 W W W W W W [ [ _ _ ] ] W W W W W W W W W W W W W W W W 7 7 . . 7 7 W W W W ",
"7 7 x x > > q q 7 7 @ @ ] ] W W W W W W W W W W 2 2 W W W W W W [ [ _ _ ] ] W W W W W W W W W W W W W W W W 7 7 . . 7 7 W W W W ",
"7 7 O O 9 9 w w - - ^ ^ ( ( { { W W 7 7 W W W W W W W W W W W W ` ` _ _ + + W W W W W W W W ) ) ` ` W W W W 7 7 ; ; 7 7 7 7 W W ",
"7 7 O O 9 9 w w - - ^ ^ ( ( { { W W 7 7 W W W W W W W W W W W W ` ` _ _ + + W W W W W W W W ) ) ` ` W W W W 7 7 ; ; 7 7 7 7 W W ",
"    7 7 q q 3 3 k k ^ ^ [ [ ] ] W W 7 7 W W W W W W W W W W ' ' ] ] ] ] 7 7 7 7 W W W W W W W W ` ` W W W W W W 7 7 , , 5 5 7 7 ",
"    7 7 q q 3 3 k k ^ ^ [ [ ] ] W W 7 7 W W W W W W W W W W ' ' ] ] ] ] 7 7 7 7 W W W W W W W W ` ` W W W W W W 7 7 , , 5 5 7 7 ",
"    7 7 7 7 9 9 b b _ _ ` ` ] ] W W W W 4 4 7 7 W W W W ] ] ' ' ] ] 7 7 > > 2 2 W W W W W W W W { { ` ` W W W W W W 7 7 ; ; 4 4 ",
"    7 7 7 7 9 9 b b _ _ ` ` ] ] W W W W 4 4 7 7 W W W W ] ] ' ' ] ] 7 7 > > 2 2 W W W W W W W W { { ` ` W W W W W W 7 7 ; ; 4 4 ",
"` `     7 7 e e b b w w / / W W W W W W o o , , < < W W ] ] ' ' 7 7 5 5 2 2 5 5 7 7 W W ! ! W W [ [ ] ] W W W W W W W W 7 7 ; ; ",
"` `     7 7 e e b b w w / / W W W W W W o o , , < < W W ] ] ' ' 7 7 5 5 2 2 5 5 7 7 W W ! ! W W [ [ ] ] W W W W W W W W 7 7 ; ; ",
") ) ] ] q q x x e e { { ] ] W W W W W W 7 7 7 7 1 1 x x _ _ 7 7 7 7 5 5 9 9 5 5 7 7 W W W W ( ( | | ] ] ] ] W W W W W W 7 7 > > ",
") ) ] ] q q x x e e { { ] ] W W W W W W 7 7 7 7 1 1 x x _ _ 7 7 7 7 5 5 9 9 5 5 7 7 W W W W ( ( | | ] ] ] ] W W W W W W 7 7 > > ",
"- - ' ' j j l l ....] ] W W W W W W W W W W 7 7 1 1 7 7 4 4 7 7 7 7 2 2 q q % % 7 7 W W ' ' [ [ ' ' ' ' W W W W W W 5 5 4 4 7 7 ",
"- - ' ' j j l l ....] ] W W W W W W W W W W 7 7 1 1 7 7 4 4 7 7 7 7 2 2 q q % % 7 7 W W ' ' [ [ ' ' ' ' W W W W W W 5 5 4 4 7 7 ",
"_ _ 5 5 e e q q ] ] W W W W W W W W W W 7 7 4 4 5 5 7 7 7 7 7 7 7 7 1 1 e e 7 7 % % W W _ _ { { _ _ ' ' W W 7 7 5 5 4 4 7 7 7 7 ",
"_ _ 5 5 e e q q ] ] W W W W W W W W W W 7 7 4 4 5 5 7 7 7 7 7 7 7 7 1 1 e e 7 7 % % W W _ _ { { _ _ ' ' W W 7 7 5 5 4 4 7 7 7 7 ",
"] ] $ $ l l q q 7 7 7 7 W W W W W W W W 5 5 2 2 7 7 7 7 W W 7 7 7 7 4 4 e e 7 7 7 7 W W _ _ | | / / 7 7 7 7 5 5 1 1 7 7 7 7 7 7 ",
"] ] $ $ l l q q 7 7 7 7 W W W W W W W W 5 5 2 2 7 7 7 7 W W 7 7 7 7 4 4 e e 7 7 7 7 W W _ _ | | / / 7 7 7 7 5 5 1 1 7 7 7 7 7 7 ",
"    7 7 b b 4 4 , , 7 7 7 7 5 5 7 7 7 7 < < 7 7 7 7 7 7 W W W W 7 7 7 7 e e 7 7 W W W W  . .{ { ; ; 7 7 7 7 , , 7 7 7 7 7 7 7 7 ",
"    7 7 b b 4 4 , , 7 7 7 7 5 5 7 7 7 7 < < 7 7 7 7 7 7 W W W W 7 7 7 7 e e 7 7 W W W W  . .{ { ; ; 7 7 7 7 , , 7 7 7 7 7 7 7 7 ",
"7 7 7 7 7 7 7 7 4 4 1 1 5 5 7 7 . . 7 7 2 2 7 7 7 7 W W W W W W W W 7 7 q q 7 7 W W ' ' ] ] } } 7 7 7 7 7 7 7 7 7 7 7 7 7 7 W W ",
"7 7 7 7 7 7 7 7 4 4 1 1 5 5 7 7 . . 7 7 2 2 7 7 7 7 W W W W W W W W 7 7 q q 7 7 W W ' ' ] ] } } 7 7 7 7 7 7 7 7 7 7 7 7 7 7 W W ",
"7 7 7 7 7 7 F F I I I I m m C C 7 7 7 7 7 7 7 7 7 7 7 7 F F F F F F C C 7 7 7 7 7 7 [ [ ] ]     C C 7 7 P P P P C C 7 7 7 7 W W ",
"7 7 7 7 7 7 F F I I I I m m C C 7 7 7 7 7 7 7 7 7 7 7 7 F F F F F F C C 7 7 7 7 7 7 [ [ ] ]     C C 7 7 P P P P C C 7 7 7 7 W W ",
"7 7 7 7 H H F F m m m m m m A A L L H H m m m m F F 7 7 m m C C H H C C o.o.I I C C m m m m U U F F m m m m m m F F 7 7 7 7 X X ",
"7 7 7 7 H H F F m m m m m m A A L L H H m m m m F F 7 7 m m C C H H C C o.o.I I C C m m m m U U F F m m m m m m F F 7 7 7 7 X X ",
"F F F F m m m m m m m m m m m m i i m m m m m m m m m m m m m m m m m m m m m m m m m m m m m m m m m m m m m m m m m m P P H H ",
"F F F F m m m m m m m m m m m m i i m m m m m m m m m m m m m m m m m m m m m m m m m m m m m m m m m m m m m m m m m m P P H H ",
"m m m m m m m m m m m m m m m m f f f f m m m m m m m m p p d d h h g g h h m m m m m m m m m m m m O.O.m m m m m m m m m m m m ",
"m m m m m m m m m m m m m m m m f f f f m m m m m m m m p p d d h h g g h h m m m m m m m m m m m m O.O.m m m m m m m m m m m m ",
"m m m m m m m m H H m m m m m m m m a a m m m m m m m m m m m m m m m m m m g g m m m m m m m m m m H H F F m m m m m m m m m m ",
"m m m m m m m m H H m m m m m m m m a a m m m m m m m m m m m m m m m m m m g g m m m m m m m m m m H H F F m m m m m m m m m m ",
"m m m m m m d d N N m m m m m m m m m m g g m m m m m m m m m m g g m m m m m m g g h h m m m m m m m m H H m m m m m m = = a a ",
"m m m m m m d d N N m m m m m m m m m m g g m m m m m m m m m m g g m m m m m m g g h h m m m m m m m m H H m m m m m m = = a a ",
"m m m m h h g g R R g g m m m m m m m m d d m m m m m m m m G G h h a a a a m m m m g g m m m m m m X.X.Y Y m m h h d d f f m m ",
"m m m m h h g g R R g g m m m m m m m m d d m m m m m m m m G G h h a a a a m m m m g g m m m m m m X.X.Y Y m m h h d d f f m m ",
"m m m m h h m m F F C C m m m m m m m m m m p p m m m m m m m m f f m m m m h h m m h h g g T T H H h h d d a a g g m m m m m m ",
"m m m m h h m m F F C C m m m m m m m m m m p p m m m m m m m m f f m m m m h h m m h h g g T T H H h h d d a a g g m m m m m m ",
"m m m m h h m m m m G G C C m m m m m m m m g g m m m m F F I I m m m m C C h h h h m m g g h h m m g g m m m m F F m m m m m m ",
"m m m m h h m m m m G G C C m m m m m m m m g g m m m m F F I I m m m m C C h h h h m m g g h h m m g g m m m m F F m m m m m m ",
"m m g g m m m m m m m m S S g g m m m m m m f f m m F F C C X.X.m m m m C C m m h h m m m m f f g g h h m m h h C C L L m m g g ",
"m m g g m m m m m m m m S S g g m m m m m m f f m m F F C C X.X.m m m m C C m m h h m m m m f f g g h h m m h h C C L L m m g g ",
"m m h h m m m m m m m m C C y y m m m m m m m m m m m m f f h h C C m m C C m m h h m m m m m m g g g g m m h h m m H H h h h h ",
"m m h h m m m m m m m m C C y y m m m m m m m m m m m m f f h h C C m m C C m m h h m m m m m m g g g g m m h h m m H H h h h h ",
"m m f f g g g g g g f f m m C C H H m m m m m m m m m m g g m m C C m m C C m m m m g g m m m m h h m m m m h h h h m m g g m m ",
"m m f f g g g g g g f f m m C C H H m m m m m m m m m m g g m m C C m m C C m m m m g g m m m m h h m m m m h h h h m m g g m m ",
"* * y y m m m m m m m m g g m m m m m m m m m m m m p p g g m m m m C C F F m m m m h h h h h h m m m m m m m m g g g g m m m m ",
"* * y y m m m m m m m m g g m m m m m m m m m m m m p p g g m m m m C C F F m m m m h h h h h h m m m m m m m m g g g g m m m m ",
"= = h h m m m m m m m m h h f f m m m m m m m m m m g g m m m m m m C C C C m m m m m m h h h h m m m m m m m m = = h h m m m m ",
"= = h h m m m m m m m m h h f f m m m m m m m m m m g g m m m m m m C C C C m m m m m m h h h h m m m m m m m m = = h h m m m m ",
"m m m m m m m m m m m m m m h h f f m m m m g g g g h h m m m m m m F F C C m m m m m m g g f f m m m m m m m m m m m m m m m m ",
"m m m m m m m m m m m m m m h h f f m m m m g g g g h h m m m m m m F F C C m m m m m m g g f f m m m m m m m m m m m m m m m m ",
"m m m m m m m m m m m m m m m m m m f f g g m m m m m m m m m m m m C C C C m m m m m m m m * * m m m m m m m m m m m m m m m m ",
"m m m m m m m m m m m m m m m m m m f f g g m m m m m m m m m m m m C C C C m m m m m m m m * * m m m m m m m m m m m m m m m m "
};
